<!-- icon666.com - MILLIONS vector ICONS FREE --><svg version="1.1" id="Capa_1" xmlns="http://www.w3.org/2000/svg" xmlns:xlink="http://www.w3.org/1999/xlink" x="0px" y="0px" viewBox="0 0 496 496" style="enable-background:new 0 0 496 496;" xml:space="preserve"><circle style="fill:#48C397;" cx="392" cy="380" r="96"></circle><path style="fill:#0FA196;" d="M488,380c0-5.464-0.56-10.784-1.44-16c-7.632,45.384-47.008,80-94.56,80s-86.928-34.616-94.56-80 c-0.88,5.216-1.44,10.536-1.44,16c0,53.016,42.984,96,96,96S488,433.016,488,380z"></path><circle style="fill:#FEA82F;" cx="248" cy="116" r="96"></circle><path style="fill:#FF8031;" d="M344,116c0-5.464-0.56-10.784-1.44-16c-7.632,45.384-47.008,80-94.56,80s-86.928-34.616-94.56-80 c-0.88,5.216-1.44,10.536-1.44,16c0,53.016,42.984,96,96,96S344,169.016,344,116z"></path><circle style="fill:#39C3FC;" cx="104" cy="380" r="96"></circle><path style="fill:#148CE0;" d="M200,380c0-5.464-0.56-10.784-1.44-16c-7.632,45.384-47.008,80-94.56,80s-86.928-34.616-94.56-80 C8.56,369.216,8,374.536,8,380c0,53.016,42.984,96,96,96S200,433.016,200,380z"></path><g><circle style="fill:#FD79A8;" cx="248" cy="292" r="16"></circle><circle style="fill:#FD79A8;" cx="376" cy="180" r="16"></circle><circle style="fill:#FD79A8;" cx="88" cy="244" r="16"></circle><circle style="fill:#FD79A8;" cx="280" cy="460" r="16"></circle></g><path d="M248,76c8.824,0,16,7.176,16,16h16c0-14.864-10.24-27.288-24-30.864V44h-16v17.136c-13.76,3.576-24,16-24,30.864 c0,17.648,14.352,32,32,32c8.824,0,16,7.176,16,16s-7.176,16-16,16s-16-7.176-16-16h-16c0,14.864,10.24,27.288,24,30.864V188h16 v-17.136c13.76-3.576,24-16,24-30.864c0-17.648-14.352-32-32-32c-8.824,0-16-7.176-16-16S239.176,76,248,76z"></path><rect x="304" y="108" width="16" height="16"></rect><rect x="176" y="108" width="16" height="16"></rect><path d="M248,220c21.936,0,42.912-6.752,60.672-19.52l-9.344-12.992C284.312,198.288,266.56,204,248,204c-48.52,0-88-39.48-88-88 s39.48-88,88-88s88,39.48,88,88c0,21.688-7.96,42.52-22.408,58.664l11.92,10.672C342.592,166.256,352,141.632,352,116 c0-57.344-46.656-104-104-104S144,58.656,144,116S190.656,220,248,220z"></path><path d="M224,292c0,13.232,10.768,24,24,24s24-10.768,24-24s-10.768-24-24-24S224,278.768,224,292z M256,292c0,4.408-3.592,8-8,8 s-8-3.592-8-8s3.592-8,8-8C252.408,284,256,287.592,256,292z"></path><path d="M376,204c1.76,0,3.464-0.216,5.12-0.576c10.328,15.488,17.904,32.416,22.312,50.48l15.544-3.8 c-4.824-19.744-13.08-38.248-24.328-55.184c3.296-4.112,5.352-9.256,5.352-14.92c0-13.232-10.768-24-24-24s-24,10.768-24,24 S362.768,204,376,204z M376,172c4.408,0,8,3.592,8,8s-3.592,8-8,8s-8-3.592-8-8S371.592,172,376,172z"></path><path d="M88,268c13.232,0,24-10.768,24-24c0-7.64-3.656-14.376-9.232-18.776c8.144-17.712,19.2-33.736,33.256-47.512l-11.2-11.432 c-15.856,15.544-28.272,33.672-37.28,53.768C74.52,220.296,64,230.92,64,244C64,257.232,74.768,268,88,268z M88,236 c4.408,0,8,3.592,8,8s-3.592,8-8,8s-8-3.592-8-8S83.592,236,88,236z"></path><path d="M280,436c-10.264,0-18.968,6.504-22.392,15.576c-15.936,0.944-32.232-0.36-47.704-4.136l-3.8,15.536 C219.736,466.312,233.832,468,248,468c3.12,0,6.224-0.272,9.336-0.44C260.528,477.08,269.424,484,280,484c13.232,0,24-10.768,24-24 S293.232,436,280,436z M280,468c-4.408,0-8-3.592-8-8s3.592-8,8-8s8,3.592,8,8S284.408,468,280,468z"></path><path d="M392,340c8.824,0,16,7.176,16,16h16c0-17.648-14.352-32-32-32s-32,14.352-32,32h-8v16h8v16h-8v16h8 c0,17.648,14.352,32,32,32s32-14.352,32-32h-16c0,8.824-7.176,16-16,16s-16-7.176-16-16h8v-16h-8v-16h8v-16h-8 C376,347.176,383.176,340,392,340z"></path><path d="M128,340h8v-16h-8c-22.056,0-40,17.944-40,40v8h-8v16h8v24c0,4.408-3.592,8-8,8v16h56v-16h-33.368 c0.88-2.504,1.368-5.192,1.368-8v-24h8v-16h-8v-8C104,350.768,114.768,340,128,340z"></path><rect x="160" y="372" width="16" height="16"></rect><rect x="32" y="372" width="16" height="16"></rect><path d="M104,276C46.656,276,0,322.656,0,380s46.656,104,104,104c21.936,0,42.912-6.752,60.672-19.52l-9.344-12.992 C140.312,462.288,122.56,468,104,468c-48.52,0-88-39.48-88-88s39.48-88,88-88s88,39.48,88,88c0,21.688-7.96,42.52-22.408,58.664 l11.92,10.672C198.592,430.256,208,405.632,208,380C208,322.656,161.344,276,104,276z"></path><rect x="448" y="372" width="16" height="16"></rect><rect x="320" y="372" width="16" height="16"></rect><path d="M392,276c-57.344,0-104,46.656-104,104s46.656,104,104,104c21.936,0,42.912-6.752,60.672-19.52l-9.344-12.992 C428.312,462.288,410.56,468,392,468c-48.52,0-88-39.48-88-88s39.48-88,88-88s88,39.48,88,88c0,21.688-7.96,42.52-22.408,58.664 l11.92,10.672C486.592,430.256,496,405.632,496,380C496,322.656,449.344,276,392,276z"></path></svg>